<svg xmlns="http://www.w3.org/2000/svg" xmlns:svg="http://www.w3.org/2000/svg" id="svg2" width="177.165" height="177.165" version="1.1"><defs id="defs4"><clipPath id="clipPath3857" clipPathUnits="userSpaceOnUse"><path id="path3859" d="m 0,47.772 168.904,0 L 168.904,0 0,0 0,47.772 z"/></clipPath></defs><metadata id="metadata7"/><g id="layer1" transform="translate(0,-875.19683)"><rect id="rect2985" width="238" height="233" x="-26" y="-21.835" fill="#00413e" fill-opacity="0" stroke="none" stroke-dasharray="none" stroke-dashoffset="0" stroke-linecap="round" stroke-linejoin="round" stroke-miterlimit="4" stroke-opacity="1" stroke-width="8" opacity="1" transform="translate(0,875.19683)"/><rect id="rect3755" width="198" height="140" x="-54" y="-60.835" fill="#00413e" fill-opacity="0" stroke="none" transform="translate(0,875.19683)"/><rect id="rect3757" width="98" height="99" x="72" y="23.165" fill="#00413e" fill-opacity="0" stroke="none" transform="translate(0,875.19683)"/><g id="g3799" transform="matrix(1.25,0,0,-1.25,23.029791,946.99729)"><rect id="rect3059" width="199.404" height="198.697" x="-10.607" y="-9.511" fill="#00413e" fill-opacity="1" stroke="none" stroke-dasharray="none" stroke-dashoffset="0" stroke-linecap="round" stroke-linejoin="round" stroke-miterlimit="4" stroke-opacity="1" stroke-width="8" transform="matrix(0.8,0,0,-0.8,-18.423833,57.440368)"/><g id="g3937" transform="matrix(1.5761488,0,0,1.5761488,-9.998084,-37.60951)"><g id="g3801" transform="translate(3.4683,14.8154)"><path id="path3803" fill="#22201e" fill-opacity="1" fill-rule="nonzero" stroke="none" d="m 0,0 13.762,-12.17 51.53,0 0,3.498 L 10.96,0.963 0,0 z"/></g><g id="g3805" transform="translate(21.0215,16.916)"><path id="path3807" fill="#fff" fill-opacity="1" fill-rule="nonzero" stroke="none" d="M 0,0 -2.394,-10.64 -12.5,12.233 0,11.434 0,0 z"/></g><path id="path3809" fill="#fff" fill-opacity="1" fill-rule="nonzero" stroke="none" d="m 67.83,6.541 -47.872,0 0,38.565 47.872,0 0,-38.565 z"/><path id="path3811" fill="#eb603a" fill-opacity="1" fill-rule="nonzero" stroke="none" d="m 65.66,7.615 -44.721,0 0,35.125 44.721,0 0,-35.125 z m -47.821,3.883 -7.281,16.272 7.281,0 0,-16.272 z m 47.821,34.34 -44.721,0 -3.1,0 0,-3.098 0,-12.184 -11.578,0 0.068,-0.156 -2.861,-15.585 9.792,0 4.579,-10.298 3.1,0 44.721,0 3.1,0 0,3.098 0,35.125 0,3.098 -3.1,0 z"/><g id="g3813" transform="translate(23.9971,12.2559)"><path id="path3815" fill="#eb603a" fill-opacity="1" fill-rule="nonzero" stroke="none" d="m 0,0 0,-1.707 4.707,0 0,4.408 L 0,0 z"/></g><g id="g3817" transform="translate(23.9971,36.3223)"><path id="path3819" fill="#eb603a" fill-opacity="1" fill-rule="nonzero" stroke="none" d="m 0,0 4.707,-2.856 0,6.012 L 0,3.156 0,0 z"/></g><g id="g3821" transform="translate(30.9443,26.7041)"><path id="path3823" fill="#eb603a" fill-opacity="1" fill-rule="nonzero" stroke="none" d="m 0,0 -2.24,1.389 -4.707,2.92 0,-13.494 4.707,2.702 2.24,1.287 4.309,2.472 0,0.051 L 0,0 z"/></g><g id="g3825" transform="translate(35.2534,29.4028)"><path id="path3827" fill="#eb603a" fill-opacity="1" fill-rule="nonzero" stroke="none" d="m 0,0 0,8.619 -4.309,0 0,-5.947 L 0,0 z"/></g><g id="g3829" transform="translate(30.9443,16.2441)"><path id="path3831" fill="#eb603a" fill-opacity="1" fill-rule="nonzero" stroke="none" d="m 0,0 0,-5.964 4.309,0 0,8.438 L 0,0 z"/></g><g id="g3833" transform="translate(39.0957,27.021)"><path id="path3835" fill="#eb603a" fill-opacity="1" fill-rule="nonzero" stroke="none" d="m 0,0 3.043,0 0,6.569 -4.308,0 0,-5.785 L 0,0 z"/></g><g id="g3837" transform="translate(39.7183,21.2783)"><path id="path3839" fill="#eb603a" fill-opacity="1" fill-rule="nonzero" stroke="none" d="m 0,0 -1.888,-1.082 0,-9.916 4.309,0 L 2.421,0 0,0 z"/></g><path id="path3841" fill="#eb603a" fill-opacity="1" fill-rule="nonzero" stroke="none" d="m 49.024,38.021 -4.309,0 0,-11 4.309,0 0,11 z"/><path id="path3843" fill="#eb603a" fill-opacity="1" fill-rule="nonzero" stroke="none" d="m 44.716,10.28 4.309,0 0,10.998 -4.309,0 0,-10.998 z"/><path id="path3845" fill="#eb603a" fill-opacity="1" fill-rule="nonzero" stroke="none" d="m 51.601,10.28 4.31,0 0,10.998 -4.31,0 0,-10.998 z"/><path id="path3847" fill="#eb603a" fill-opacity="1" fill-rule="nonzero" stroke="none" d="m 55.911,31.357 -4.31,0 0,-4.336 4.31,0 0,4.336 z"/><path id="path3849" fill="#eb603a" fill-opacity="1" fill-rule="nonzero" stroke="none" d="m 62.796,36.273 -4.31,0 0,-9.252 4.31,0 0,9.252 z"/><path id="path3851" fill="#eb603a" fill-opacity="1" fill-rule="nonzero" stroke="none" d="m 58.487,10.28 4.31,0 0,10.998 -4.31,0 0,-10.998 z"/></g><text id="text3965" x="-3.813" y="62.99" fill="#000" fill-opacity="1" stroke="none" font-family="Lato" font-size="17.6" font-stretch="normal" font-style="normal" font-variant="normal" font-weight="bold" letter-spacing="0" text-anchor="start" transform="scale(1,-1)" word-spacing="0" writing-mode="lr-tb" xml:space="preserve" style="text-align:start;line-height:125%;-inkscape-font-specification:Lato Bold"><tspan font-stretch="normal" style="text-align:start;line-height:125%;-inkscape-font-specification:Lato Bold" id="tspan3967" x="-3.813" y="62.99" fill="#fff" fill-opacity="1" font-family="Lato" font-size="17.6" font-style="normal" font-variant="normal" font-weight="bold" text-anchor="start" writing-mode="lr-tb">wazimap.co.za</tspan></text></g></g></svg>